<svg height="512" viewBox="0 0 74 74" width="512" xmlns="http://www.w3.org/2000/svg"><g id="line_color" data-name="line color"><path d="m71 41.22h-14.41a.5.5 0 0 1 0-1h14.41a.5.5 0 0 1 0 1z" fill="#323c6b"/><path d="m17.41 41.22h-14.41a.5.5 0 0 1 0-1h14.41a.5.5 0 0 1 0 1z" fill="#323c6b"/><path d="m57.24 35.59a20.6 20.6 0 0 1 -.65 5.13h-39.18a20.6 20.6 0 0 1 -.65-5.13 20.24 20.24 0 0 1 40.48 0z" fill="#fed19a"/><path d="m56.978 41.22h-39.956l-.1-.376a21.2 21.2 0 0 1 -.666-5.254 20.74 20.74 0 0 1 41.48 0 21.2 21.2 0 0 1 -.666 5.254zm-39.176-1h38.398a20.146 20.146 0 0 0 .542-4.63 19.74 19.74 0 0 0 -39.48 0 20.146 20.146 0 0 0 .538 4.63z" fill="#323c6b"/><path d="m36.99 15.36a20.188 20.188 0 0 0 -15.719 7.51 20.235 20.235 0 0 1 32.969 15.72 20.43 20.43 0 0 1 -.12 2.13h2.47a20.6 20.6 0 0 0 .65-5.13 20.238 20.238 0 0 0 -20.25-20.23z" fill="#f4bb87"/><g fill="#323c6b"><path d="m37 11.021a.5.5 0 0 1 -.5-.5v-6.167a.5.5 0 0 1 1 0v6.167a.5.5 0 0 1 -.5.5z"/><path d="m30.513 11.905a.5.5 0 0 1 -.482-.371l-.878-3.276a.5.5 0 0 1 .966-.258l.881 3.276a.5.5 0 0 1 -.483.629z"/><path d="m24.478 14.438a.5.5 0 0 1 -.434-.25l-1.7-2.938a.5.5 0 1 1 .866-.5l1.7 2.938a.5.5 0 0 1 -.433.75z"/><path d="m15.341 23.659a.5.5 0 0 1 -.25-.067l-2.938-1.7a.5.5 0 0 1 .5-.866l2.938 1.7a.5.5 0 0 1 -.25.933z"/><path d="m12.865 29.718a.5.5 0 0 1 -.13-.017l-3.277-.878a.5.5 0 1 1 .259-.966l3.277.878a.5.5 0 0 1 -.129.983z"/><path d="m61.366 29.718a.5.5 0 0 1 -.129-.983l3.277-.878a.5.5 0 0 1 .259.966l-3.273.877a.5.5 0 0 1 -.134.018z"/><path d="m58.89 23.659a.5.5 0 0 1 -.25-.933l2.938-1.7a.5.5 0 1 1 .5.866l-2.937 1.7a.5.5 0 0 1 -.251.067z"/><path d="m49.753 14.438a.5.5 0 0 1 -.433-.75l1.7-2.938a.5.5 0 0 1 .866.5l-1.7 2.938a.5.5 0 0 1 -.433.25z"/><path d="m43.718 11.905a.5.5 0 0 1 -.483-.629l.877-3.276a.5.5 0 1 1 .966.259l-.878 3.276a.5.5 0 0 1 -.482.37z"/><path d="m11.924 36.1h-6.167a.5.5 0 0 1 0-1h6.167a.5.5 0 1 1 0 1z"/><path d="m68.243 36.1h-6.167a.5.5 0 0 1 0-1h6.167a.5.5 0 0 1 0 1z"/><path d="m19.269 18.365a.5.5 0 0 1 -.354-.146l-4.632-4.632a.5.5 0 0 1 .707-.707l4.632 4.632a.5.5 0 0 1 -.354.854z"/><path d="m54.731 18.365a.5.5 0 0 1 -.354-.854l4.633-4.631a.5.5 0 0 1 .707.707l-4.632 4.632a.5.5 0 0 1 -.354.146z"/><path d="m56.978 41.22h-39.956l-.1-.376a21.2 21.2 0 0 1 -.666-5.254 20.74 20.74 0 0 1 41.48 0 21.2 21.2 0 0 1 -.666 5.254zm-39.176-1h38.398a20.146 20.146 0 0 0 .542-4.63 19.74 19.74 0 0 0 -39.48 0 20.146 20.146 0 0 0 .538 4.63z"/></g><path d="m44.78 58.867-7.78 10.78-7.78-10.78h4.19v-12.38h7.18v12.38z" fill="#b6d2dd"/><path d="m37 70.146a.5.5 0 0 1 -.405-.208l-7.78-10.78a.5.5 0 0 1 .405-.792h3.69v-11.879a.5.5 0 0 1 .5-.5h7.18a.5.5 0 0 1 .5.5v11.88h3.69a.5.5 0 0 1 .405.792l-7.78 10.78a.5.5 0 0 1 -.405.207zm-6.8-10.78 6.8 9.426 6.8-9.425h-3.21a.5.5 0 0 1 -.5-.5v-11.88h-6.18v11.88a.5.5 0 0 1 -.5.5z" fill="#323c6b"/><path d="m38.59 46.961h2v12.38h-2z" fill="#acc6cc"/><path d="m42.78 58.867-6.78 9.394 1 1.386 7.78-10.78z" fill="#acc6cc"/><path d="m37 70.146a.5.5 0 0 1 -.405-.208l-7.78-10.78a.5.5 0 0 1 .405-.792h3.69v-11.879a.5.5 0 0 1 .5-.5h7.18a.5.5 0 0 1 .5.5v11.88h3.69a.5.5 0 0 1 .405.792l-7.78 10.78a.5.5 0 0 1 -.405.207zm-6.8-10.78 6.8 9.426 6.8-9.425h-3.21a.5.5 0 0 1 -.5-.5v-11.88h-6.18v11.88a.5.5 0 0 1 -.5.5z" fill="#323c6b"/><g fill="#eeefee"><path d="m28.321 21.9c-.013-.021-.028-.041-.043-.061a.951.951 0 0 0 -1.334-.176 4.392 4.392 0 0 0 -.728.622.951.951 0 1 0 1.316 1.375 3.016 3.016 0 0 1 .57-.487.952.952 0 0 0 .219-1.273z"/><path d="m25.347 25.146a.953.953 0 0 0 -1.56-.135 17.737 17.737 0 0 0 -3.872 11.535.952.952 0 0 0 1.9.038 15.969 15.969 0 0 1 3.436-10.361.952.952 0 0 0 .096-1.077z"/></g></g></svg>