<svg height="512" viewBox="0 0 74 74" width="512" xmlns="http://www.w3.org/2000/svg"><g id="line_color" data-name="line color"><path d="m71 41.22h-14.41a.5.5 0 0 1 0-1h14.41a.5.5 0 0 1 0 1z" fill="#323c6b"/><path d="m17.41 41.22h-14.41a.5.5 0 0 1 0-1h14.41a.5.5 0 0 1 0 1z" fill="#323c6b"/><path d="m57.24 35.59a20.606 20.606 0 0 1 -.65 5.13h-39.18a20.6 20.6 0 0 1 -.65-5.13 20.24 20.24 0 0 1 40.48 0z" fill="#fed19a"/><path d="m56.978 41.22h-39.956l-.1-.376a21.173 21.173 0 0 1 -.666-5.254 20.74 20.74 0 0 1 41.48 0 21.173 21.173 0 0 1 -.666 5.254zm-39.176-1h38.398a20.2 20.2 0 0 0 .542-4.63 19.74 19.74 0 0 0 -39.48 0 20.2 20.2 0 0 0 .538 4.63z" fill="#323c6b"/><path d="m36.99 15.36a20.152 20.152 0 0 0 -14.035 5.682 20.222 20.222 0 0 1 30.285 17.548 20.463 20.463 0 0 1 -.12 2.13h3.47a20.606 20.606 0 0 0 .65-5.13 20.238 20.238 0 0 0 -20.25-20.23z" fill="#f4bb87"/><g fill="#323c6b"><path d="m37 11.021a.5.5 0 0 1 -.5-.5v-6.167a.5.5 0 0 1 1 0v6.167a.5.5 0 0 1 -.5.5z"/><path d="m30.514 11.905a.5.5 0 0 1 -.483-.371l-.878-3.276a.5.5 0 0 1 .966-.258l.881 3.276a.5.5 0 0 1 -.483.629z"/><path d="m24.478 14.438a.5.5 0 0 1 -.433-.25l-1.7-2.938a.5.5 0 1 1 .865-.5l1.7 2.938a.5.5 0 0 1 -.433.75z"/><path d="m15.342 23.659a.5.5 0 0 1 -.25-.067l-2.937-1.7a.5.5 0 0 1 .5-.866l2.938 1.7a.5.5 0 0 1 -.25.933z"/><path d="m12.864 29.718a.5.5 0 0 1 -.13-.017l-3.276-.878a.5.5 0 1 1 .26-.966l3.276.878a.5.5 0 0 1 -.13.983z"/><path d="m61.366 29.718a.5.5 0 0 1 -.129-.983l3.277-.878a.5.5 0 1 1 .258.966l-3.272.877a.487.487 0 0 1 -.134.018z"/><path d="m58.89 23.659a.5.5 0 0 1 -.25-.933l2.938-1.7a.5.5 0 0 1 .5.866l-2.937 1.7a.5.5 0 0 1 -.251.067z"/><path d="m49.754 14.438a.5.5 0 0 1 -.433-.75l1.7-2.938a.5.5 0 1 1 .865.5l-1.7 2.938a.5.5 0 0 1 -.432.25z"/><path d="m43.718 11.905a.5.5 0 0 1 -.483-.629l.877-3.276a.5.5 0 0 1 .967.259l-.879 3.276a.5.5 0 0 1 -.482.37z"/><path d="m11.925 36.1h-6.168a.5.5 0 0 1 0-1h6.168a.5.5 0 1 1 0 1z"/><path d="m68.243 36.1h-6.168a.5.5 0 0 1 0-1h6.168a.5.5 0 0 1 0 1z"/><path d="m19.269 18.365a.5.5 0 0 1 -.354-.146l-4.632-4.632a.5.5 0 0 1 .707-.707l4.632 4.632a.5.5 0 0 1 -.354.854z"/><path d="m54.731 18.365a.5.5 0 0 1 -.354-.854l4.633-4.631a.5.5 0 0 1 .707.707l-4.632 4.632a.5.5 0 0 1 -.354.146z"/><path d="m56.978 41.22h-39.956l-.1-.376a21.173 21.173 0 0 1 -.666-5.254 20.74 20.74 0 0 1 41.48 0 21.173 21.173 0 0 1 -.666 5.254zm-39.176-1h38.398a20.2 20.2 0 0 0 .542-4.63 19.74 19.74 0 0 0 -39.48 0 20.2 20.2 0 0 0 .538 4.63z"/><path d="m36.5 73.146h-.542a.5.5 0 0 1 0-1h.542a.5.5 0 0 1 0 1z"/><path d="m43.59 73.146h-4.574a.5.5 0 0 1 0-1h4.074v-1.521a.5.5 0 0 1 1 0v2.021a.5.5 0 0 1 -.5.5z"/></g><path d="m44.78 56.267-7.78-10.78-7.78 10.78h4.19v13.38h7.18v-13.38z" fill="#b1dcc1"/><path d="m40.59 70.146h-7.18a.5.5 0 0 1 -.5-.5v-12.879h-3.69a.5.5 0 0 1 -.405-.792l7.78-10.78a.518.518 0 0 1 .811 0l7.78 10.78a.5.5 0 0 1 -.405.792h-3.691v12.88a.5.5 0 0 1 -.5.499zm-6.68-1h6.18v-12.879a.5.5 0 0 1 .5-.5h3.21l-6.8-9.426-6.8 9.425h3.21a.5.5 0 0 1 .5.5z" fill="#323c6b"/><path d="m38.59 55.781h2v13.865h-2z" fill="#9dceb2"/><path d="m37 45.487-1 1.385 6.78 9.395h2z" fill="#9dceb2"/><path d="m40.59 70.146h-7.18a.5.5 0 0 1 -.5-.5v-12.879h-3.69a.5.5 0 0 1 -.405-.792l7.78-10.78a.518.518 0 0 1 .811 0l7.78 10.78a.5.5 0 0 1 -.405.792h-3.691v12.88a.5.5 0 0 1 -.5.499zm-6.68-1h6.18v-12.879a.5.5 0 0 1 .5-.5h3.21l-6.8-9.426-6.8 9.425h3.21a.5.5 0 0 1 .5.5z" fill="#323c6b"/><g fill="#eeefee"><path d="m28.393 22.721c-.013-.02-.026-.039-.041-.058a.9.9 0 0 0 -1.262-.163 4.154 4.154 0 0 0 -.688.589.9.9 0 0 0 1.245 1.3 2.853 2.853 0 0 1 .539-.46.9.9 0 0 0 .207-1.208z"/><path d="m25.579 25.8a.9.9 0 0 0 -1.476-.127 13.591 13.591 0 0 0 -2.663 10.906.9.9 0 0 0 1.8.036 11.9 11.9 0 0 1 2.25-9.8.9.9 0 0 0 .089-1.015z"/></g></g></svg>